<svg version="1.1" id="Layer_1" xmlns="http://www.w3.org/2000/svg" xmlns:xlink="http://www.w3.org/1999/xlink" x="0px" y="0px"
	 width="100%" viewBox="0 0 192 192" enable-background="new 0 0 192 192" xml:space="preserve">
<path fill="#FBF9F6" opacity="1.000000" stroke="none" 
	d="
M1.000000,97.000000 
	C1.000000,71.312439 1.000000,45.624878 1.356491,19.536480 
	C2.142539,20.423189 2.572095,21.710733 3.001131,23.427849 
	C3.382985,25.848629 1.861703,29.457794 5.731272,28.792715 
	C8.961026,28.237602 13.833786,29.550592 14.465431,23.692867 
	C14.574597,22.680489 16.850500,21.231049 18.194296,21.152012 
	C21.795410,20.940214 25.434288,21.492481 29.057217,21.479340 
	C30.932692,21.472536 33.346054,21.547171 34.590694,20.492531 
	C41.390465,14.730751 47.994205,17.393778 54.402573,20.616364 
	C40.764473,26.972916 28.833380,34.992271 19.800430,47.160007 
	C22.868891,46.658714 26.043560,45.921848 28.119164,43.998753 
	C44.660137,28.673193 64.013474,20.565830 86.604805,19.850409 
	C101.561287,19.376764 115.562233,22.736185 129.221146,29.266884 
	C147.875137,39.527531 161.285431,54.185513 168.812866,73.720108 
	C179.359650,101.090218 177.271835,127.509911 161.056152,152.131897 
	C159.179672,151.522964 157.553391,151.261673 155.955368,150.599533 
	C156.242737,147.395508 156.501846,144.592346 156.789719,141.477890 
	C151.354279,142.968842 150.663986,151.683716 144.389236,148.070602 
	C136.540695,143.551254 144.616547,139.092606 145.935715,134.696045 
	C139.130066,133.332535 132.774597,137.417770 132.554108,143.464478 
	C132.345093,149.195755 131.569229,154.235123 125.707298,157.422073 
	C124.804192,156.413605 123.842453,155.339645 123.053787,153.970596 
	C123.415512,152.674973 123.604156,151.674454 123.792809,150.673935 
	C123.081718,151.441162 122.370628,152.208389 121.342506,152.804565 
	C118.085350,148.806473 114.963791,145.102386 112.260948,141.114487 
	C109.988632,137.761810 105.245697,136.587631 101.802788,139.053131 
	C99.258682,138.683746 97.123505,138.341965 95.014420,137.649048 
	C102.242729,133.725830 105.540344,128.094254 104.507950,119.917145 
	C107.492836,116.643013 104.847992,114.907539 102.990303,112.890968 
	C100.564445,110.257637 99.780357,108.194733 104.117790,106.277092 
	C108.097542,104.517578 111.495415,103.945168 116.102249,104.595192 
	C124.788551,105.820824 124.847656,104.999275 127.127510,113.938095 
	C127.346817,114.797974 128.885742,115.321281 129.898865,116.462250 
	C129.985657,124.001465 129.985657,131.079269 129.985657,137.052704 
	C132.274368,135.182419 134.777405,133.136978 137.522400,130.743118 
	C137.714233,119.835686 137.664108,109.276680 137.735016,98.366913 
	C141.638443,97.624008 145.449677,97.401344 149.190521,96.764915 
	C150.938675,96.467491 152.550720,95.369949 154.224457,94.635056 
	C153.417847,92.825546 152.940628,90.742676 151.722412,89.274773 
	C150.151794,87.382248 148.173843,85.660843 146.045364,84.428970 
	C139.195312,80.464508 137.183807,74.779640 137.849594,67.007011 
	C138.576218,58.524166 138.011215,58.475769 128.885025,59.376205 
	C128.711533,62.452831 128.533203,65.615189 128.316635,69.455872 
	C117.679237,60.728436 107.595665,52.608749 97.704422,44.261173 
	C93.988037,41.124786 90.926186,41.100361 87.333473,44.391056 
	C83.532532,47.872467 79.385368,50.976982 75.375145,54.228512 
	C70.409370,58.254818 65.428894,62.263012 59.774620,66.828171 
	C59.774620,64.673622 59.777817,63.543247 59.774094,62.412895 
	C59.752346,55.811298 58.422764,54.482906 51.700874,53.696190 
	C50.268013,53.528488 48.984570,52.327686 47.541981,51.932468 
	C46.036243,51.519947 44.257355,51.025105 42.911594,51.484749 
	C42.003681,51.794849 41.345341,53.640907 41.105820,54.900734 
	C40.800098,56.508801 40.759903,58.278324 41.112659,59.865486 
	C41.394794,61.134903 42.193428,62.845882 43.204281,63.246235 
	C44.295017,63.678219 45.976288,62.999611 47.258419,62.465649 
	C48.665241,61.879765 49.910534,60.906033 51.991737,59.633076 
	C51.991737,66.115906 52.342319,71.286713 51.917141,76.392921 
	C51.088295,86.346886 42.401554,94.264267 32.131298,94.918198 
	C21.736946,95.580025 12.285965,89.363319 10.580091,79.514961 
	C9.530419,73.455002 10.385788,67.065071 10.385788,60.361889 
	C12.035959,60.697395 13.439168,60.930264 14.814432,61.274700 
	C16.830715,61.779686 18.827000,62.364525 20.831804,62.915337 
	C21.252192,61.235363 21.755581,59.570286 22.060780,57.869640 
	C22.234421,56.902054 22.020939,55.871895 22.090830,54.877579 
	C22.363821,50.993866 20.046329,50.358189 17.078209,51.162380 
	C13.733085,52.068726 10.349895,53.078197 7.266624,54.612312 
	C5.529637,55.476578 4.363698,57.488533 2.727028,59.269836 
	C2.505166,60.723209 2.496786,61.890221 2.406284,63.413589 
	C2.380576,64.494644 2.436991,65.219337 2.372472,66.392311 
	C2.447806,70.911552 2.644072,74.982513 2.827027,79.452774 
	C5.045901,91.693192 12.401109,98.650192 23.734020,101.843811 
	C24.945230,102.185127 26.103504,102.714310 27.233112,103.423676 
	C27.223820,103.867317 27.267750,104.043648 27.206310,104.662552 
	C27.327991,116.735672 27.555044,128.366226 27.406517,139.996185 
	C24.699705,138.398529 22.368469,136.801453 19.287109,134.690475 
	C17.739172,135.195724 14.991817,136.092438 12.096154,136.636810 
	C7.622877,125.133469 5.827315,113.589745 6.577291,101.652222 
	C6.809070,97.962936 3.948206,95.571671 1.000000,97.000000 
z"/>
<path fill="#FAF6F2" opacity="1.000000" stroke="none" 
	d="
M3.001652,22.998276 
	C2.572095,21.710733 2.142539,20.423189 1.356491,19.067823 
	C1.000000,13.016554 1.000000,7.033107 1.000000,1.000000 
	C47.687550,1.000000 94.375114,1.000000 141.494873,1.354756 
	C140.881042,3.907944 141.286301,6.243592 143.754776,6.200719 
	C149.584976,6.099457 154.046967,8.417548 157.927124,12.412954 
	C158.035126,12.524158 158.228210,12.630207 158.371689,12.618352 
	C165.816589,12.003211 170.369492,17.197332 176.035583,20.657814 
	C180.979446,23.677193 185.678665,26.131485 188.340790,31.599794 
	C189.084396,33.127262 191.403580,33.887699 193.000000,35.000000 
	C193.000000,37.700012 193.000000,40.400028 192.609467,43.642559 
	C191.554993,47.711590 190.891052,51.238098 189.994949,55.997684 
	C188.563736,54.312660 187.815628,53.451584 187.089417,52.572418 
	C185.910355,51.145020 184.751450,49.700977 183.573181,48.272907 
	C182.449951,46.911533 181.142609,45.668465 180.212845,44.187183 
	C177.077896,39.192669 174.399460,34.136375 168.967667,30.737179 
	C163.300980,27.190992 157.152313,27.188404 151.114700,25.918493 
	C148.867508,25.445835 145.874741,24.632605 144.839279,22.968395 
	C140.732895,16.368486 134.614410,15.786971 127.894676,15.999207 
	C125.022232,16.089931 122.062973,16.093637 119.278076,15.501917 
	C116.786880,14.972607 115.393524,15.250690 114.718033,17.922869 
	C113.932281,17.688021 113.432846,17.443890 112.924675,16.893616 
	C112.565720,16.196976 112.215500,15.806479 111.865280,15.415979 
	C111.580315,15.886778 111.295341,16.357576 110.695892,16.849388 
	C109.589828,16.609711 108.798241,16.349020 107.972427,15.790895 
	C107.649467,15.144970 107.360725,14.796479 107.071976,14.447991 
	C106.718086,14.908010 106.364189,15.368025 105.669754,15.808564 
	C104.220573,15.542966 103.111938,15.296844 101.959686,14.680398 
	C98.081718,9.648786 94.121750,9.620315 91.554489,14.278525 
	C89.130791,14.305473 87.134445,14.292546 84.998177,14.029575 
	C84.245171,14.043327 83.632103,14.307124 82.689163,14.666210 
	C81.904793,14.740163 81.450287,14.718824 80.981041,14.348082 
	C80.529991,13.380199 80.105690,12.231168 79.655594,12.220976 
	C68.910110,11.977659 58.123886,11.236137 47.424999,11.891031 
	C37.125736,12.521464 26.906570,14.554715 16.672258,16.104027 
	C12.770726,16.694656 8.862849,17.390804 6.300815,21.078241 
	C5.642869,22.025198 4.124655,22.374441 3.001652,22.998276 
z"/>
<path fill="#FCF8F4" opacity="1.000000" stroke="none" 
	d="
M115.004356,17.913586 
	C115.393524,15.250690 116.786880,14.972607 119.278076,15.501917 
	C122.062973,16.093637 125.022232,16.089931 127.894676,15.999207 
	C134.614410,15.786971 140.732895,16.368486 144.839279,22.968395 
	C145.874741,24.632605 148.867508,25.445835 151.114700,25.918493 
	C157.152313,27.188404 163.300980,27.190992 168.967667,30.737179 
	C174.399460,34.136375 177.077896,39.192669 180.212845,44.187183 
	C181.142609,45.668465 182.449951,46.911533 183.573181,48.272907 
	C184.751450,49.700977 185.910355,51.145020 187.089417,52.572418 
	C187.815628,53.451584 188.563736,54.312660 189.994949,55.997684 
	C190.891052,51.238098 191.554993,47.711590 192.609467,44.092537 
	C193.000000,79.354225 193.000000,114.708458 192.611069,150.523834 
	C189.037582,149.816574 187.019333,151.128860 184.066284,152.857803 
	C179.330154,155.630737 174.388351,157.522964 170.305191,161.725601 
	C168.246338,163.844711 163.472549,163.326035 160.062454,163.687073 
	C174.187408,145.152908 181.108917,124.690948 180.140610,101.600075 
	C179.572540,88.053139 175.833313,75.424309 169.613052,63.525887 
	C160.421097,45.943085 147.155441,32.420799 128.738159,23.745644 
	C123.985229,21.644032 119.494789,19.778809 115.004356,17.913586 
z"/>
<path fill="#F7F2ED" opacity="1.000000" stroke="none" 
	d="
M108.000000,193.000000 
	C101.312355,193.000000 94.624710,193.000000 87.231964,192.674225 
	C78.623322,190.610733 70.512764,189.502716 62.864517,186.988403 
	C51.253002,183.171188 40.979679,176.814392 32.958549,167.194305 
	C33.936325,166.583923 34.829685,165.936996 35.408302,166.149017 
	C39.981647,167.824829 44.012962,167.087799 47.971931,163.827393 
	C51.236362,164.367371 54.125687,164.890030 57.143330,165.748566 
	C59.842636,165.862915 62.413624,165.641388 65.415489,165.319550 
	C67.902855,165.286484 69.959351,165.353699 72.140373,165.752441 
	C74.505173,165.824448 76.745438,165.564926 79.337631,165.174103 
	C80.434509,164.968414 81.179451,164.894043 82.145943,165.120026 
	C84.729446,165.640045 87.927940,169.833084 89.247902,164.006775 
	C89.476044,163.993713 89.932869,163.980362 89.973503,164.277313 
	C90.359291,164.766754 90.704437,164.959229 91.104370,165.484772 
	C95.258263,168.287750 99.357376,170.757675 103.241234,173.503082 
	C96.654724,178.359390 94.823967,183.283035 97.534882,188.345245 
	C99.059593,186.866440 100.658066,185.420135 102.135635,183.859390 
	C104.557533,181.301163 106.697586,181.341507 109.335938,183.810150 
	C113.516472,187.721756 110.037163,190.180283 108.000000,193.000000 
z"/>
<path fill="#0F223C" opacity="1.000000" stroke="none" 
	d="
M108.458069,193.000000 
	C110.037163,190.180283 113.516472,187.721756 109.335938,183.810150 
	C106.697586,181.341507 104.557533,181.301163 102.135635,183.859390 
	C100.658066,185.420135 99.059593,186.866440 97.534882,188.345245 
	C94.823967,183.283035 96.654724,178.359390 103.524033,173.484650 
	C105.679909,173.070602 107.337723,172.950500 109.345505,172.903381 
	C111.221275,172.026581 112.747093,171.076813 114.566299,169.979568 
	C117.385918,167.082642 119.912125,164.333160 122.606094,161.401093 
	C118.835205,157.435730 115.473557,153.602158 111.763794,150.141815 
	C110.209381,148.691910 107.917015,148.033142 105.809662,146.743896 
	C104.887344,145.275772 104.115501,144.078430 103.264343,142.554764 
	C102.860596,141.179199 102.536148,140.129974 102.211708,139.080750 
	C105.245697,136.587631 109.988632,137.761810 112.260948,141.114487 
	C114.963791,145.102386 118.085350,148.806473 121.426575,153.023254 
	C122.178673,153.697205 122.529694,153.981461 122.880714,154.265701 
	C123.842453,155.339645 124.804192,156.413605 125.707298,157.422073 
	C131.569229,154.235123 132.345093,149.195755 132.554108,143.464478 
	C132.774597,137.417770 139.130066,133.332535 145.935715,134.696045 
	C144.616547,139.092606 136.540695,143.551254 144.389236,148.070602 
	C150.663986,151.683716 151.354279,142.968842 156.789719,141.477890 
	C156.501846,144.592346 156.242737,147.395508 155.697144,150.813568 
	C152.777496,156.438461 148.679321,158.877396 142.972565,158.936737 
	C141.550339,158.951523 139.753601,159.632599 138.787552,160.639359 
	C133.995590,165.633270 129.424057,170.838684 124.792236,175.981125 
	C124.809601,175.992661 124.803284,175.950043 124.470680,176.136353 
	C121.601898,178.658081 119.328758,181.113876 120.099167,185.412338 
	C119.685654,188.219986 119.342827,190.609985 119.000000,193.000000 
	C115.638710,193.000000 112.277428,193.000000 108.458069,193.000000 
z"/>
<path fill="#F8F3ED" opacity="1.000000" stroke="none" 
	d="
M193.000000,34.531342 
	C191.403580,33.887699 189.084396,33.127262 188.340790,31.599794 
	C185.678665,26.131485 180.979446,23.677193 176.035583,20.657814 
	C170.369492,17.197332 165.816589,12.003211 158.371689,12.618352 
	C158.228210,12.630207 158.035126,12.524158 157.927124,12.412954 
	C154.046967,8.417548 149.584976,6.099457 143.754776,6.200719 
	C141.286301,6.243592 140.881042,3.907944 141.963531,1.354756 
	C158.020889,1.000000 174.041794,1.000000 190.548676,1.247398 
	C191.191269,1.755241 191.347885,2.015687 191.504486,2.276135 
	C191.669662,1.850759 191.834839,1.425381 192.000000,1.000001 
	C192.333328,1.818544 192.951401,2.635242 192.956726,3.455914 
	C193.022888,13.657835 193.000000,23.860334 193.000000,34.531342 
z"/>
<path fill="#F6F1EA" opacity="1.000000" stroke="none" 
	d="
M62.000000,193.000000 
	C41.768288,193.000000 21.536573,193.000000 1.000000,193.000000 
	C1.000000,184.314819 1.000000,175.626068 1.333570,166.469269 
	C2.111901,166.001221 2.556661,166.001221 3.352763,166.039429 
	C5.608612,167.599472 7.344077,169.428360 9.448565,170.586929 
	C16.419971,174.424911 23.358061,178.406799 30.646372,181.551361 
	C34.418156,183.178726 38.901333,183.157272 43.427944,183.913818 
	C49.861858,186.964584 55.930931,189.982285 62.000000,193.000000 
z"/>
<path fill="#FAF5EF" opacity="1.000000" stroke="none" 
	d="
M159.926376,164.000076 
	C163.472549,163.326035 168.246338,163.844711 170.305191,161.725601 
	C174.388351,157.522964 179.330154,155.630737 184.066284,152.857803 
	C187.019333,151.128860 189.037582,149.816574 192.611069,150.992493 
	C193.000000,157.354401 193.000000,163.708786 192.584839,170.532013 
	C184.508850,173.493515 176.807922,175.871262 169.202881,178.523911 
	C164.942398,180.009949 162.410248,183.415497 160.476746,187.317261 
	C157.090012,183.849976 153.990128,180.574112 150.919586,176.879395 
	C150.961365,175.074005 150.973816,173.687469 151.331665,172.223938 
	C154.426849,169.431305 157.176605,166.715698 159.926376,164.000076 
z"/>
<path fill="#D7AC71" opacity="1.000000" stroke="none" 
	d="
M62.468651,193.000000 
	C55.930931,189.982285 49.861858,186.964584 43.261127,183.621231 
	C35.183365,176.152252 27.637260,169.008926 19.960278,161.556091 
	C11.092283,150.049744 5.874685,137.289581 2.978279,123.480286 
	C2.449550,120.959450 1.665948,118.492058 1.000000,116.000000 
	C1.000000,109.978844 1.000000,103.957695 1.000000,97.468269 
	C3.948206,95.571671 6.809070,97.962936 6.577291,101.652222 
	C5.827315,113.589745 7.622877,125.133469 12.160555,136.973984 
	C13.182947,139.466843 13.943305,141.294266 14.810587,143.069473 
	C19.319868,152.299332 24.601757,160.970123 32.728317,167.555710 
	C40.979679,176.814392 51.253002,183.171188 62.864517,186.988403 
	C70.512764,189.502716 78.623322,190.610733 86.763428,192.674225 
	C78.979095,193.000000 70.958199,193.000000 62.468651,193.000000 
z"/>
<path fill="#F7F2EB" opacity="1.000000" stroke="none" 
	d="
M160.763596,187.508698 
	C162.410248,183.415497 164.942398,180.009949 169.202881,178.523911 
	C176.807922,175.871262 184.508850,173.493515 192.584839,171.000427 
	C193.000000,178.272247 193.000000,185.544495 193.000000,193.000000 
	C182.979706,193.000000 172.958511,193.000000 162.403625,192.646637 
	C161.501160,190.698410 161.132370,189.103546 160.763596,187.508698 
z"/>
<path fill="#162640" opacity="1.000000" stroke="none" 
	d="
M160.476746,187.317261 
	C161.132370,189.103546 161.501160,190.698410 161.934967,192.646637 
	C160.933334,193.000000 159.866653,193.000000 158.284866,192.638489 
	C157.353271,190.909653 157.346375,189.130157 156.453186,188.242538 
	C151.061981,182.884964 145.467941,177.731506 138.825119,171.454681 
	C139.289001,173.531815 139.169922,175.084641 139.889008,175.871185 
	C143.801743,180.151047 148.036209,184.139771 151.884933,188.472946 
	C152.798080,189.501053 152.656448,191.465988 153.000000,193.000000 
	C153.000000,193.000000 152.500000,193.000000 152.116394,192.695099 
	C146.222794,187.253571 140.712799,182.116928 134.129684,175.979889 
	C134.770248,178.177750 134.781815,179.777115 135.579575,180.687744 
	C139.266739,184.896652 143.172546,188.914001 147.000000,193.000000 
	C145.611115,193.000000 144.222214,193.000000 142.408340,192.656342 
	C138.316864,188.543488 134.650360,184.774277 130.977020,180.667725 
	C130.901245,179.890335 130.832321,179.450302 130.758667,178.712158 
	C130.179855,178.350784 129.605789,178.287506 128.825714,178.063782 
	C128.455811,177.844727 128.291901,177.786102 128.169479,177.541702 
	C128.210968,177.355911 128.050568,177.010605 128.183807,176.690369 
	C130.904373,173.106216 133.346802,169.704453 136.205917,166.699142 
	C136.752686,166.124420 139.334763,166.645508 140.303070,167.461639 
	C143.982178,170.562500 147.384476,173.991760 150.890259,177.298248 
	C153.990128,180.574112 157.090012,183.849976 160.476746,187.317261 
z"/>
<path fill="#FAF6F2" opacity="1.000000" stroke="none" 
	d="
M1.000000,116.468658 
	C1.665948,118.492058 2.449550,120.959450 2.978279,123.480286 
	C5.874685,137.289581 11.092283,150.049744 19.733150,161.840225 
	C14.741055,164.060257 13.641469,159.445831 11.131822,157.206421 
	C8.811293,155.135757 6.632004,152.906799 4.390509,150.747543 
	C3.927480,151.051636 3.464450,151.355713 3.001421,151.659805 
	C3.001421,156.440277 3.001421,161.220749 3.001421,166.001221 
	C2.556661,166.001221 2.111901,166.001221 1.333570,166.000610 
	C1.000000,149.645767 1.000000,133.291550 1.000000,116.468658 
z"/>
<path fill="#F4F0EB" opacity="1.000000" stroke="none" 
	d="
M130.983856,181.005081 
	C134.650360,184.774277 138.316864,188.543488 141.991669,192.656342 
	C134.645752,193.000000 127.291496,193.000000 119.468628,193.000000 
	C119.342827,190.609985 119.685654,188.219986 120.461189,185.407089 
	C124.257217,183.657822 127.620537,182.331451 130.983856,181.005081 
z"/>
<path fill="#CA9F66" opacity="1.000000" stroke="none" 
	d="
M153.416656,193.000000 
	C152.656448,191.465988 152.798080,189.501053 151.884933,188.472946 
	C148.036209,184.139771 143.801743,180.151047 139.889008,175.871185 
	C139.169922,175.084641 139.289001,173.531815 138.825119,171.454681 
	C145.467941,177.731506 151.061981,182.884964 156.453186,188.242538 
	C157.346375,189.130157 157.353271,190.909653 157.884872,192.638489 
	C156.611115,193.000000 155.222214,193.000000 153.416656,193.000000 
z"/>
<path fill="#CCA167" opacity="1.000000" stroke="none" 
	d="
M147.416656,193.000000 
	C143.172546,188.914001 139.266739,184.896652 135.579575,180.687744 
	C134.781815,179.777115 134.770248,178.177750 134.129684,175.979889 
	C140.712799,182.116928 146.222794,187.253571 151.866394,192.695099 
	C150.611115,193.000000 149.222214,193.000000 147.416656,193.000000 
z"/>
<path fill="#FAF6F2" opacity="1.000000" stroke="none" 
	d="
M191.750000,1.000002 
	C191.834839,1.425381 191.669662,1.850759 191.504486,2.276135 
	C191.347885,2.015687 191.191269,1.755241 191.017334,1.247398 
	C191.000000,1.000000 191.500000,1.000000 191.750000,1.000002 
z"/>
<path fill="#13253F" opacity="1.000000" stroke="none" 
	d="
M81.924400,164.819687 
	C81.179451,164.894043 80.434509,164.968414 78.903419,165.123627 
	C76.083466,165.276642 74.049652,165.348785 72.015839,165.420914 
	C69.959351,165.353699 67.902855,165.286484 64.979996,165.230591 
	C61.747414,165.298843 59.381214,165.355774 57.015011,165.412704 
	C54.125687,164.890030 51.236362,164.367371 47.711903,163.565872 
	C36.443428,159.004547 30.793213,150.593826 27.782095,139.996765 
	C27.555044,128.366226 27.327991,116.735672 27.457443,104.556885 
	C27.638077,103.724541 27.462206,103.440445 27.286335,103.156349 
	C26.103504,102.714310 24.945230,102.185127 23.734020,101.843811 
	C12.401109,98.650192 5.045901,91.693192 3.110335,79.150833 
	C3.102438,74.281090 2.797922,70.112564 2.493406,65.944038 
	C2.436991,65.219337 2.380576,64.494644 2.693615,63.295860 
	C3.022217,61.542339 2.981365,60.262909 2.940513,58.983475 
	C4.363698,57.488533 5.529637,55.476578 7.266624,54.612312 
	C10.349895,53.078197 13.733085,52.068726 17.078209,51.162380 
	C20.046329,50.358189 22.363821,50.993866 22.090830,54.877579 
	C22.020939,55.871895 22.234421,56.902054 22.060780,57.869640 
	C21.755581,59.570286 21.252192,61.235363 20.831804,62.915337 
	C18.827000,62.364525 16.830715,61.779686 14.814432,61.274700 
	C13.439168,60.930264 12.035959,60.697395 10.385788,60.361889 
	C10.385788,67.065071 9.530419,73.455002 10.580091,79.514961 
	C12.285965,89.363319 21.736946,95.580025 32.131298,94.918198 
	C42.401554,94.264267 51.088295,86.346886 51.917141,76.392921 
	C52.342319,71.286713 51.991737,66.115906 51.991737,59.633076 
	C49.910534,60.906033 48.665241,61.879765 47.258419,62.465649 
	C45.976288,62.999611 44.295017,63.678219 43.204281,63.246235 
	C42.193428,62.845882 41.394794,61.134903 41.112659,59.865486 
	C40.759903,58.278324 40.800098,56.508801 41.105820,54.900734 
	C41.345341,53.640907 42.003681,51.794849 42.911594,51.484749 
	C44.257355,51.025105 46.036243,51.519947 47.541981,51.932468 
	C48.984570,52.327686 50.268013,53.528488 51.700874,53.696190 
	C58.422764,54.482906 59.752346,55.811298 59.774094,62.412895 
	C59.777817,63.543247 59.774620,64.673622 59.774620,66.828171 
	C65.428894,62.263012 70.409370,58.254818 75.375145,54.228512 
	C79.385368,50.976982 83.532532,47.872467 87.333473,44.391056 
	C90.926186,41.100361 93.988037,41.124786 97.704422,44.261173 
	C107.595665,52.608749 117.679237,60.728436 128.316635,69.455872 
	C128.533203,65.615189 128.711533,62.452831 128.885025,59.376205 
	C138.011215,58.475769 138.576218,58.524166 137.849594,67.007011 
	C137.183807,74.779640 139.195312,80.464508 146.045364,84.428970 
	C148.173843,85.660843 150.151794,87.382248 151.722412,89.274773 
	C152.940628,90.742676 153.417847,92.825546 154.224457,94.635056 
	C152.550720,95.369949 150.938675,96.467491 149.190521,96.764915 
	C145.449677,97.401344 141.638443,97.624008 137.348770,98.624573 
	C136.738907,109.641960 136.631912,120.050873 136.565109,130.460052 
	C136.563766,130.669022 137.031540,130.880997 137.280457,131.091553 
	C134.777405,133.136978 132.274368,135.182419 129.985657,137.052704 
	C129.985657,131.079269 129.985657,124.001465 129.984131,116.000381 
	C129.990982,109.752304 130.040741,104.427185 129.998871,99.102783 
	C129.918320,88.860748 129.890640,90.091454 138.761658,89.948914 
	C138.979675,89.945412 139.192245,89.602005 139.762527,89.111877 
	C124.005592,76.082390 108.311943,63.105225 92.569412,50.087643 
	C81.966164,58.744873 71.624542,67.114380 61.408363,75.634293 
	C60.277702,76.577217 59.524269,78.298981 59.170506,79.795380 
	C56.311211,91.889854 47.476227,100.172447 34.801273,102.134415 
	C33.928932,102.986328 33.072506,103.760834 33.064392,104.544121 
	C32.971561,113.502045 32.959530,122.461960 33.080574,131.419250 
	C33.093433,132.371002 34.087360,133.309479 34.748070,134.577316 
	C35.644249,141.761032 38.173252,147.715256 43.951904,152.425629 
	C45.285992,153.177277 46.418785,153.598358 47.881844,153.834656 
	C48.477348,152.737808 48.970837,151.826462 48.973789,150.913544 
	C49.022736,135.790512 49.036114,120.667145 48.961414,105.544334 
	C48.955490,104.345299 48.243366,103.149742 47.931042,101.608177 
	C50.052166,99.573448 52.101681,97.883110 54.664307,95.769577 
	C54.664307,99.063004 54.664307,101.905029 54.279552,104.982803 
	C52.879898,109.223488 51.491421,113.253403 54.781021,117.389694 
	C54.817944,119.208908 54.754688,120.615730 54.325279,122.150757 
	C53.635399,125.976692 53.112160,129.672897 53.083824,133.372879 
	C53.072105,134.903534 54.120842,136.442291 54.788322,138.308075 
	C54.961777,139.091888 55.034203,139.545029 55.019463,140.386414 
	C54.846214,143.107117 54.760132,145.439575 54.292282,147.986267 
	C54.167500,150.201797 54.424488,152.203110 54.777824,154.467590 
	C54.809666,155.093002 54.745163,155.455246 54.430462,155.920700 
	C54.377972,156.282501 54.575680,156.541092 54.913406,156.879517 
	C55.053429,156.959381 55.035324,157.281250 55.100037,157.518097 
	C55.761845,157.758987 56.358944,157.763031 57.361961,157.615463 
	C59.193478,157.562744 60.619076,157.661621 62.212280,158.064514 
	C65.238899,158.170334 68.097916,157.972168 71.327576,157.620514 
	C72.480354,157.565216 73.262482,157.663391 74.184784,158.041245 
	C75.872299,158.003464 77.419647,157.685989 79.281540,157.191345 
	C89.069344,153.035797 86.574684,144.708023 86.939468,137.419434 
	C86.049683,138.212372 85.159889,139.005310 84.270103,139.798248 
	C82.295441,136.496567 80.320770,133.194901 78.274780,129.484116 
	C78.245621,125.301392 77.222389,121.080849 78.574783,117.856842 
	C80.707275,112.773170 85.437057,109.941978 91.285225,110.054024 
	C97.971085,110.182121 101.665733,114.357834 104.165329,119.998085 
	C105.540344,128.094254 102.242729,133.725830 94.897903,138.074478 
	C94.826927,140.900452 94.898575,142.949890 94.861870,145.407776 
	C94.598900,147.487579 94.444283,149.158920 94.152031,151.129242 
	C91.895241,154.903610 89.776085,158.379013 87.471695,161.866745 
	C87.036087,161.973907 86.871643,162.149292 86.474960,162.537750 
	C84.745987,163.386703 83.335190,164.103195 81.924400,164.819687 
M84.393028,120.046104 
	C82.550278,123.804420 82.844345,127.605171 86.452484,129.635681 
	C88.648369,130.871429 92.710175,131.305908 94.516602,130.054520 
	C96.568909,128.632797 97.980141,124.895370 97.884491,122.228645 
	C97.815193,120.296684 95.001457,117.149147 93.116142,116.914215 
	C90.498871,116.588066 87.604843,118.482773 84.393028,120.046104 
z"/>
<path fill="#FAF9F7" opacity="1.000000" stroke="none" 
	d="
M104.507950,119.917145 
	C101.665733,114.357834 97.971085,110.182121 91.285225,110.054024 
	C85.437057,109.941978 80.707275,112.773170 78.574783,117.856842 
	C77.222389,121.080849 78.245621,125.301392 77.866837,129.510712 
	C75.642776,129.949081 73.773170,130.236053 74.280205,127.106277 
	C74.421280,126.235390 72.866188,124.631256 71.746063,124.129242 
	C70.309181,123.485260 68.438835,123.875664 66.906487,123.365852 
	C60.084885,121.096298 59.576962,121.720604 58.839058,128.889969 
	C58.448906,132.680588 56.404301,136.300934 55.106628,139.998154 
	C55.034203,139.545029 54.961777,139.091888 54.869728,137.849014 
	C54.797215,132.047028 54.744324,127.034790 54.691429,122.022552 
	C54.754688,120.615730 54.817944,119.208908 54.860504,116.942352 
	C54.781307,112.304100 54.722805,108.525581 54.664307,104.747055 
	C54.664307,101.905029 54.664307,99.063004 54.664307,95.769577 
	C52.101681,97.883110 50.052166,99.573448 47.734856,101.979683 
	C47.360672,107.130341 47.254288,111.565094 46.782112,115.963844 
	C44.940891,113.771461 43.438347,111.632988 41.998428,109.453156 
	C40.803848,107.644737 39.683029,105.787605 38.529533,103.952049 
	C38.047886,104.208076 37.566238,104.464111 37.084591,104.720139 
	C37.588741,106.899437 38.275375,109.055603 38.555241,111.263336 
	C39.000198,114.773415 38.741898,118.139542 34.881508,119.542465 
	C34.920910,113.410309 35.066063,107.735687 35.211220,102.061073 
	C47.476227,100.172447 56.311211,91.889854 59.170506,79.795380 
	C59.524269,78.298981 60.277702,76.577217 61.408363,75.634293 
	C71.624542,67.114380 81.966164,58.744873 92.569412,50.087643 
	C108.311943,63.105225 124.005592,76.082390 139.762527,89.111877 
	C139.192245,89.602005 138.979675,89.945412 138.761658,89.948914 
	C129.890640,90.091454 129.918320,88.860748 129.998871,99.102783 
	C130.040741,104.427185 129.990982,109.752304 129.897339,115.538971 
	C128.885742,115.321281 127.346817,114.797974 127.127510,113.938095 
	C124.847656,104.999275 124.788551,105.820824 116.102249,104.595192 
	C111.495415,103.945168 108.097542,104.517578 104.117790,106.277092 
	C99.780357,108.194733 100.564445,110.257637 102.990303,112.890968 
	C104.847992,114.907539 107.492836,116.643013 104.507950,119.917145 
M85.406357,78.930908 
	C80.772285,78.191719 79.788116,80.600624 80.001846,84.674530 
	C80.155396,87.601463 80.650993,89.471039 84.128662,89.229355 
	C86.938751,89.034065 90.356544,89.928535 90.362244,85.451828 
	C90.365944,82.548172 91.462723,78.689796 85.406357,78.930908 
M99.243950,78.951797 
	C97.429382,79.554108 94.422958,79.751495 94.051743,80.844162 
	C93.309975,83.027519 93.099342,87.048264 94.320160,87.876228 
	C96.471573,89.335342 99.860817,88.969315 102.780403,89.374184 
	C102.975807,86.221390 103.493591,84.016266 103.091339,81.994179 
	C102.859169,80.827065 101.141579,79.955437 99.243950,78.951797 
M89.237076,92.110031 
	C87.591690,91.988487 85.942543,91.904160 84.301643,91.738213 
	C79.936058,91.296715 80.103226,94.171707 80.040390,97.203690 
	C79.974487,100.383751 80.651291,102.233269 84.433746,102.126205 
	C87.700981,102.033707 90.480782,101.916466 90.394051,97.695770 
	C90.360298,96.053398 90.069809,94.416306 89.237076,92.110031 
M98.015991,92.723488 
	C94.725128,90.502266 93.587410,92.768791 93.066483,95.356216 
	C91.912483,101.088043 94.756020,102.899826 102.702499,101.422012 
	C102.702499,98.762428 102.702499,96.039047 102.702499,93.004936 
	C101.441071,92.921547 100.173393,92.837746 98.015991,92.723488 
z"/>
<path fill="#D5AA71" opacity="1.000000" stroke="none" 
	d="
M160.062454,163.687073 
	C157.176605,166.715698 154.426849,169.431305 151.085678,171.949417 
	C148.174271,169.920822 149.007675,168.509323 150.657028,166.525208 
	C154.409119,162.011505 157.780334,157.181198 161.306335,152.479553 
	C177.271835,127.509911 179.359650,101.090218 168.812866,73.720108 
	C161.285431,54.185513 147.875137,39.527531 129.222656,28.847443 
	C128.998657,26.778561 128.999649,25.380299 129.000641,23.982035 
	C147.155441,32.420799 160.421097,45.943085 169.613052,63.525887 
	C175.833313,75.424309 179.572540,88.053139 180.140610,101.600075 
	C181.108917,124.690948 174.187408,145.152908 160.062454,163.687073 
z"/>
<path fill="#D7AC72" opacity="1.000000" stroke="none" 
	d="
M128.738159,23.745644 
	C128.999649,25.380299 128.998657,26.778561 128.996155,28.596268 
	C115.562233,22.736185 101.561287,19.376764 86.604805,19.850409 
	C64.013474,20.565830 44.660137,28.673193 28.119164,43.998753 
	C26.043560,45.921848 22.868891,46.658714 19.800430,47.160007 
	C28.833380,34.992271 40.764473,26.972916 54.608116,20.513313 
	C55.391243,20.037340 55.689045,19.944479 56.384136,19.944607 
	C60.889454,18.738798 65.014153,17.493385 69.526779,16.215881 
	C70.945663,16.067190 71.976608,15.950592 73.351135,15.876362 
	C74.795227,15.609444 75.895729,15.300157 77.397964,15.021231 
	C78.865059,14.933556 79.930412,14.815520 80.995773,14.697485 
	C81.450287,14.718824 81.904793,14.740163 82.960205,14.744662 
	C84.086777,14.578424 84.612442,14.429022 85.138107,14.279619 
	C87.134445,14.292546 89.130791,14.305473 91.935837,14.401131 
	C95.830788,14.672813 98.917046,14.861768 102.003296,15.050722 
	C103.111938,15.296844 104.220573,15.542966 105.994293,15.903339 
	C107.108467,16.041170 107.557556,16.064749 108.006653,16.088329 
	C108.798241,16.349020 109.589828,16.609711 111.008217,16.949371 
	C112.067818,17.085480 112.500618,17.142618 112.933418,17.199757 
	C113.432846,17.443890 113.932281,17.688021 114.718033,17.922869 
	C119.494789,19.778809 123.985229,21.644032 128.738159,23.745644 
z"/>
<path fill="#FCF8F4" opacity="1.000000" stroke="none" 
	d="
M80.981041,14.348082 
	C79.930412,14.815520 78.865059,14.933556 77.179428,14.764853 
	C75.375290,14.930075 74.191422,15.382033 73.007553,15.833993 
	C71.976608,15.950592 70.945663,16.067190 69.256943,15.889778 
	C61.149853,14.082647 58.357590,15.037938 56.003517,19.905001 
	C55.689045,19.944479 55.391243,20.037340 54.904564,20.286636 
	C47.994205,17.393778 41.390465,14.730751 34.590694,20.492531 
	C33.346054,21.547171 30.932692,21.472536 29.057217,21.479340 
	C25.434288,21.492481 21.795410,20.940214 18.194296,21.152012 
	C16.850500,21.231049 14.574597,22.680489 14.465431,23.692867 
	C13.833786,29.550592 8.961026,28.237602 5.731272,28.792715 
	C1.861703,29.457794 3.382985,25.848629 3.001131,23.427849 
	C4.124655,22.374441 5.642869,22.025198 6.300815,21.078241 
	C8.862849,17.390804 12.770726,16.694656 16.672258,16.104027 
	C26.906570,14.554715 37.125736,12.521464 47.424999,11.891031 
	C58.123886,11.236137 68.910110,11.977659 79.655594,12.220976 
	C80.105690,12.231168 80.529991,13.380199 80.981041,14.348082 
z"/>
<path fill="#F9F6F3" opacity="1.000000" stroke="none" 
	d="
M27.406517,139.996185 
	C30.793213,150.593826 36.443428,159.004547 47.336800,163.548553 
	C44.012962,167.087799 39.981647,167.824829 35.408302,166.149017 
	C34.829685,165.936996 33.936325,166.583923 32.958549,167.194305 
	C24.601757,160.970123 19.319868,152.299332 14.810587,143.069473 
	C13.943305,141.294266 13.182947,139.466843 12.308864,137.326324 
	C14.991817,136.092438 17.739172,135.195724 19.287109,134.690475 
	C22.368469,136.801453 24.699705,138.398529 27.406517,139.996185 
z"/>
<path fill="#F9F6F2" opacity="1.000000" stroke="none" 
	d="
M161.056152,152.131897 
	C157.780334,157.181198 154.409119,162.011505 150.657028,166.525208 
	C149.007675,168.509323 148.174271,169.920822 150.740265,172.026428 
	C150.973816,173.687469 150.961365,175.074005 150.919586,176.879395 
	C147.384476,173.991760 143.982178,170.562500 140.303070,167.461639 
	C139.334763,166.645508 136.752686,166.124420 136.205917,166.699142 
	C133.346802,169.704453 130.904373,173.106216 127.862534,176.558411 
	C126.530281,176.487656 125.652573,176.228622 124.774864,175.969589 
	C129.424057,170.838684 133.995590,165.633270 138.787552,160.639359 
	C139.753601,159.632599 141.550339,158.951523 142.972565,158.936737 
	C148.679321,158.877396 152.777496,156.438461 155.668854,151.214417 
	C157.553391,151.261673 159.179672,151.522964 161.056152,152.131897 
z"/>
<path fill="#00132F" opacity="1.000000" stroke="none" 
	d="
M137.522400,130.743134 
	C137.031540,130.880997 136.563766,130.669022 136.565109,130.460052 
	C136.631912,120.050873 136.738907,109.641960 137.227753,98.975342 
	C137.664108,109.276680 137.714233,119.835686 137.522400,130.743134 
z"/>
<path fill="#F8F6F3" opacity="1.000000" stroke="none" 
	d="
M94.970222,144.999313 
	C94.898575,142.949890 94.826927,140.900452 94.871796,138.425598 
	C97.123505,138.341965 99.258682,138.683746 101.802788,139.053131 
	C102.536148,140.129974 102.860596,141.179199 102.869843,142.614716 
	C100.026505,143.667114 97.498367,144.333206 94.970222,144.999313 
z"/>
<path fill="#313B53" opacity="1.000000" stroke="none" 
	d="
M2.372472,66.392311 
	C2.797922,70.112564 3.102438,74.281090 3.123647,78.751549 
	C2.644072,74.982513 2.447806,70.911552 2.372472,66.392311 
z"/>
<path fill="#F8F6F3" opacity="1.000000" stroke="none" 
	d="
M123.053787,153.970596 
	C122.529694,153.981461 122.178673,153.697205 121.743591,153.194275 
	C122.370628,152.208389 123.081718,151.441162 123.792809,150.673935 
	C123.604156,151.674454 123.415512,152.674973 123.053787,153.970596 
z"/>
<path fill="#313B53" opacity="1.000000" stroke="none" 
	d="
M2.727029,59.269836 
	C2.981365,60.262909 3.022217,61.542339 2.775738,62.939499 
	C2.496786,61.890221 2.505166,60.723209 2.727029,59.269836 
z"/>
<path fill="#001431" opacity="1.000000" stroke="none" 
	d="
M27.233112,103.423676 
	C27.462206,103.440445 27.638077,103.724541 27.562815,104.114304 
	C27.267750,104.043648 27.223820,103.867317 27.233112,103.423676 
z"/>
<path fill="#FCF8F4" opacity="1.000000" stroke="none" 
	d="
M101.959686,14.680399 
	C98.917046,14.861768 95.830788,14.672813 92.363190,14.361254 
	C94.121750,9.620315 98.081718,9.648786 101.959686,14.680399 
z"/>
<path fill="#FCF8F4" opacity="1.000000" stroke="none" 
	d="
M84.998177,14.029575 
	C84.612442,14.429022 84.086777,14.578424 83.290070,14.649372 
	C83.632103,14.307124 84.245171,14.043327 84.998177,14.029575 
z"/>
<path fill="#FCF8F4" opacity="1.000000" stroke="none" 
	d="
M107.972427,15.790895 
	C107.557556,16.064749 107.108467,16.041170 106.334831,15.922815 
	C106.364189,15.368025 106.718086,14.908010 107.071976,14.447991 
	C107.360725,14.796479 107.649467,15.144970 107.972427,15.790895 
z"/>
<path fill="#FCF8F4" opacity="1.000000" stroke="none" 
	d="
M112.924675,16.893616 
	C112.500618,17.142618 112.067818,17.085480 111.322693,16.928358 
	C111.295341,16.357576 111.580315,15.886778 111.865280,15.415979 
	C112.215500,15.806479 112.565720,16.196976 112.924675,16.893616 
z"/>
<path fill="#F8F6F3" opacity="1.000000" stroke="none" 
	d="
M87.656921,161.854416 
	C89.776085,158.379013 91.895241,154.903610 94.625366,151.178925 
	C99.660172,151.950851 102.993652,149.985397 105.960144,147.014709 
	C107.917015,148.033142 110.209381,148.691910 111.763794,150.141815 
	C115.473557,153.602158 118.835205,157.435730 122.606094,161.401093 
	C119.912125,164.333160 117.385918,167.082642 114.244385,169.832092 
	C109.256592,166.461197 109.028145,169.494461 108.995544,172.830383 
	C107.337723,172.950500 105.679909,173.070602 103.739288,173.209167 
	C99.357376,170.757675 95.258263,168.287750 91.092712,165.384918 
	C91.026283,164.951996 90.935196,164.772705 91.402252,164.850510 
	C98.112000,164.936234 104.364113,165.144806 110.592751,164.852768 
	C113.064545,164.736893 115.484276,163.510513 117.927711,162.789734 
	C118.079750,162.165741 118.231781,161.541733 118.383812,160.917740 
	C116.954758,159.856705 115.525703,158.795654 113.891312,157.459686 
	C112.783844,157.210663 111.881699,157.236588 110.520340,157.187180 
	C106.662498,157.108017 103.251717,156.932739 99.870392,157.172577 
	C98.177025,157.292694 96.537346,158.169693 94.625801,158.855545 
	C94.007011,159.677185 93.635803,160.347672 93.033623,161.214783 
	C92.157661,162.170349 91.512672,162.929245 90.636459,163.769119 
	C90.405235,163.850082 89.932869,163.980362 89.932869,163.980362 
	C89.932869,163.980362 89.476044,163.993713 89.237923,163.996750 
	C88.999802,163.999786 88.981628,163.981354 88.943771,163.647614 
	C88.489594,162.827377 88.073257,162.340897 87.656921,161.854416 
z"/>
<path fill="#F8F6F3" opacity="1.000000" stroke="none" 
	d="
M82.145943,165.120026 
	C83.335190,164.103195 84.745987,163.386703 86.626663,162.868195 
	C87.724899,163.371231 88.353264,163.676285 88.981628,163.981354 
	C88.981628,163.981354 88.999802,163.999786 89.009781,164.009796 
	C87.927940,169.833084 84.729446,165.640045 82.145943,165.120026 
z"/>
<path fill="#FFFFF9" opacity="1.000000" stroke="none" 
	d="
M57.143330,165.748566 
	C59.381214,165.355774 61.747414,165.298843 64.549118,165.330872 
	C62.413624,165.641388 59.842636,165.862915 57.143330,165.748566 
z"/>
<path fill="#FFFFF9" opacity="1.000000" stroke="none" 
	d="
M72.140373,165.752441 
	C74.049652,165.348785 76.083466,165.276642 78.551491,165.254959 
	C76.745438,165.564926 74.505173,165.824448 72.140373,165.752441 
z"/>
<path fill="#13253E" opacity="1.000000" stroke="none" 
	d="
M89.973503,164.277313 
	C89.932869,163.980362 90.405235,163.850082 90.671631,164.039124 
	C90.937080,164.409668 90.936134,164.591187 90.935196,164.772705 
	C90.935196,164.772705 91.026283,164.951996 91.037933,165.051849 
	C90.704437,164.959229 90.359291,164.766754 89.973503,164.277313 
z"/>
<path fill="#FBF9F6" opacity="1.000000" stroke="none" 
	d="
M105.809669,146.743896 
	C102.993652,149.985397 99.660172,151.950851 94.763000,150.879944 
	C94.444283,149.158920 94.598900,147.487579 94.861870,145.407776 
	C97.498367,144.333206 100.026505,143.667114 102.949150,142.941055 
	C104.115501,144.078430 104.887344,145.275772 105.809669,146.743896 
z"/>
<path fill="#F9F6F2" opacity="1.000000" stroke="none" 
	d="
M130.977020,180.667725 
	C127.620537,182.331451 124.257217,183.657822 120.531876,184.989456 
	C119.328758,181.113876 121.601898,178.658081 124.523743,176.551804 
	C125.982277,177.096466 127.055130,177.411987 128.127991,177.727493 
	C128.291901,177.786102 128.455811,177.844727 128.981400,178.259827 
	C129.816513,178.747620 130.289948,178.878937 130.763382,179.010254 
	C130.832321,179.450302 130.901245,179.890335 130.977020,180.667725 
z"/>
<path fill="#F7F2ED" opacity="1.000000" stroke="none" 
	d="
M109.345505,172.903366 
	C109.028145,169.494461 109.256592,166.461197 113.950989,169.979553 
	C112.747093,171.076813 111.221275,172.026581 109.345505,172.903366 
z"/>
<path fill="#F4F0EB" opacity="1.000000" stroke="none" 
	d="
M128.169479,177.541702 
	C127.055130,177.411987 125.982277,177.096466 124.856354,176.365509 
	C124.803284,175.950043 124.809601,175.992661 124.792236,175.981125 
	C125.652573,176.228622 126.530281,176.487656 127.729279,176.878647 
	C128.050568,177.010605 128.210968,177.355911 128.169479,177.541702 
z"/>
<path fill="#F8F3EF" opacity="1.000000" stroke="none" 
	d="
M3.352763,166.039429 
	C3.001421,161.220749 3.001421,156.440277 3.001421,151.659805 
	C3.464450,151.355713 3.927480,151.051636 4.390509,150.747543 
	C6.632004,152.906799 8.811293,155.135757 11.131822,157.206421 
	C13.641469,159.445831 14.741055,164.060257 19.864025,162.149750 
	C27.637260,169.008926 35.183365,176.152252 42.896290,183.588165 
	C38.901333,183.157272 34.418156,183.178726 30.646372,181.551361 
	C23.358061,178.406799 16.419971,174.424911 9.448565,170.586929 
	C7.344077,169.428360 5.608612,167.599472 3.352763,166.039429 
z"/>
<path fill="#F4F0EB" opacity="1.000000" stroke="none" 
	d="
M130.758667,178.712158 
	C130.289948,178.878937 129.816513,178.747620 129.187393,178.420258 
	C129.605789,178.287506 130.179855,178.350784 130.758667,178.712158 
z"/>
<path fill="#FAF7F4" opacity="1.000000" stroke="none" 
	d="
M55.019463,140.386414 
	C56.404301,136.300934 58.448906,132.680588 58.839058,128.889969 
	C59.576962,121.720604 60.084885,121.096298 66.906487,123.365852 
	C68.438835,123.875664 70.309181,123.485260 71.746063,124.129242 
	C72.866188,124.631256 74.421280,126.235390 74.280205,127.106277 
	C73.773170,130.236053 75.642776,129.949081 77.938171,129.919830 
	C80.320770,133.194901 82.295441,136.496567 84.270103,139.798248 
	C85.159889,139.005310 86.049683,138.212372 86.939468,137.419434 
	C86.574684,144.708023 89.069344,153.035797 78.867371,157.191467 
	C76.773979,157.499695 75.409294,157.630630 74.044617,157.761566 
	C73.262482,157.663391 72.480354,157.565216 70.894775,157.500870 
	C67.409111,157.609970 64.726891,157.685242 62.044674,157.760513 
	C60.619076,157.661621 59.193478,157.562744 57.056435,157.484909 
	C55.908432,157.431061 55.471878,157.356155 55.035324,157.281250 
	C55.035324,157.281250 55.053429,156.959381 54.939316,156.629364 
	C54.777023,156.138718 54.728844,155.978104 54.680660,155.817474 
	C54.745163,155.455246 54.809666,155.093002 54.858513,154.013168 
	C54.786591,151.454376 54.730320,149.613205 54.674049,147.772018 
	C54.760132,145.439575 54.846214,143.107117 55.019463,140.386414 
z"/>
<path fill="#FBF9F6" opacity="1.000000" stroke="none" 
	d="
M34.987255,120.000000 
	C38.741898,118.139542 39.000198,114.773415 38.555241,111.263336 
	C38.275375,109.055603 37.588741,106.899437 37.084591,104.720139 
	C37.566238,104.464111 38.047886,104.208076 38.529533,103.952049 
	C39.683029,105.787605 40.803848,107.644737 41.998428,109.453156 
	C43.438347,111.632988 44.940891,113.771461 46.909813,116.417595 
	C47.320595,128.605164 47.237892,140.302979 46.729282,152.001328 
	C45.452454,152.032928 44.601536,152.064011 43.750614,152.095078 
	C38.173252,147.715256 35.644249,141.761032 34.811985,134.105301 
	C34.831745,128.873398 34.909500,124.436699 34.987255,120.000000 
z"/>
<path fill="#F6F4F2" opacity="1.000000" stroke="none" 
	d="
M84.611160,119.736404 
	C87.604843,118.482773 90.498871,116.588066 93.116142,116.914215 
	C95.001457,117.149147 97.815193,120.296684 97.884491,122.228645 
	C97.980141,124.895370 96.568909,128.632797 94.516602,130.054520 
	C92.710175,131.305908 88.648369,130.871429 86.452484,129.635681 
	C82.844345,127.605171 82.550278,123.804420 84.611160,119.736404 
z"/>
<path fill="#000E2B" opacity="1.000000" stroke="none" 
	d="
M47.155190,152.000793 
	C47.237892,140.302979 47.320595,128.605164 47.275600,116.453606 
	C47.254288,111.565094 47.360672,107.130341 47.663246,102.324074 
	C48.243366,103.149742 48.955490,104.345299 48.961414,105.544334 
	C49.036114,120.667145 49.022736,135.790512 48.973789,150.913544 
	C48.970837,151.826462 48.477348,152.737808 47.839455,153.491257 
	C47.362926,152.888687 47.259060,152.444733 47.155190,152.000793 
z"/>
<path fill="#000F29" opacity="1.000000" stroke="none" 
	d="
M34.881508,119.542465 
	C34.909500,124.436699 34.831745,128.873398 34.690071,133.782104 
	C34.087360,133.309479 33.093433,132.371002 33.080574,131.419250 
	C32.959530,122.461960 32.971561,113.502045 33.064392,104.544121 
	C33.072506,103.760834 33.928932,102.986328 34.801273,102.134415 
	C35.066063,107.735687 34.920910,113.410309 34.881508,119.542465 
z"/>
<path fill="#011531" opacity="1.000000" stroke="none" 
	d="
M54.325279,122.150757 
	C54.744324,127.034790 54.797215,132.047028 54.768700,137.518311 
	C54.120842,136.442291 53.072105,134.903534 53.083824,133.372879 
	C53.112160,129.672897 53.635399,125.976692 54.325279,122.150757 
z"/>
<path fill="#011531" opacity="1.000000" stroke="none" 
	d="
M54.279549,104.982803 
	C54.722805,108.525581 54.781307,112.304100 54.760323,116.529961 
	C51.491421,113.253403 52.879898,109.223488 54.279549,104.982803 
z"/>
<path fill="#000D2A" opacity="1.000000" stroke="none" 
	d="
M62.212280,158.064514 
	C64.726891,157.685242 67.409111,157.609970 70.524124,157.654358 
	C68.097916,157.972168 65.238899,158.170334 62.212280,158.064514 
z"/>
<path fill="#000D2A" opacity="1.000000" stroke="none" 
	d="
M74.184784,158.041245 
	C75.409294,157.630630 76.773979,157.499695 78.552826,157.368637 
	C77.419647,157.685989 75.872299,158.003464 74.184784,158.041245 
z"/>
<path fill="#011531" opacity="1.000000" stroke="none" 
	d="
M54.292282,147.986267 
	C54.730320,149.613205 54.786591,151.454376 54.762169,153.749985 
	C54.424488,152.203110 54.167500,150.201797 54.292282,147.986267 
z"/>
<path fill="#FAF9F7" opacity="1.000000" stroke="none" 
	d="
M46.729282,152.001328 
	C47.259060,152.444733 47.362926,152.888687 47.509186,153.676025 
	C46.418785,153.598358 45.285992,153.177277 43.951904,152.425629 
	C44.601536,152.064011 45.452454,152.032928 46.729282,152.001328 
z"/>
<path fill="#F7F2ED" opacity="1.000000" stroke="none" 
	d="
M88.943771,163.647614 
	C88.353264,163.676285 87.724899,163.371231 86.944832,162.735718 
	C86.871643,162.149292 87.036087,161.973907 87.471703,161.866745 
	C88.073257,162.340897 88.489594,162.827377 88.943771,163.647614 
z"/>
<path fill="#000D2A" opacity="1.000000" stroke="none" 
	d="
M55.100037,157.518097 
	C55.471878,157.356155 55.908432,157.431061 56.650513,157.636520 
	C56.358944,157.763031 55.761845,157.758987 55.100037,157.518097 
z"/>
<path fill="#011531" opacity="1.000000" stroke="none" 
	d="
M54.430462,155.920700 
	C54.728844,155.978104 54.777023,156.138718 54.799297,156.549500 
	C54.575680,156.541092 54.377972,156.282501 54.430462,155.920700 
z"/>
<path fill="#10233D" opacity="1.000000" stroke="none" 
	d="
M85.839539,78.932983 
	C91.462723,78.689796 90.365944,82.548172 90.362244,85.451828 
	C90.356544,89.928535 86.938751,89.034065 84.128662,89.229355 
	C80.650993,89.471039 80.155396,87.601463 80.001846,84.674530 
	C79.788116,80.600624 80.772285,78.191719 85.839539,78.932983 
z"/>
<path fill="#0E223B" opacity="1.000000" stroke="none" 
	d="
M99.668259,78.951309 
	C101.141579,79.955437 102.859169,80.827065 103.091339,81.994179 
	C103.493591,84.016266 102.975807,86.221390 102.780403,89.374184 
	C99.860817,88.969315 96.471573,89.335342 94.320160,87.876228 
	C93.099342,87.048264 93.309975,83.027519 94.051743,80.844162 
	C94.422958,79.751495 97.429382,79.554108 99.668259,78.951309 
z"/>
<path fill="#0F223C" opacity="1.000000" stroke="none" 
	d="
M89.566673,92.443420 
	C90.069809,94.416306 90.360298,96.053398 90.394051,97.695770 
	C90.480782,101.916466 87.700981,102.033707 84.433746,102.126205 
	C80.651291,102.233269 79.974487,100.383751 80.040390,97.203690 
	C80.103226,94.171707 79.936058,91.296715 84.301643,91.738213 
	C85.942543,91.904160 87.591690,91.988487 89.566673,92.443420 
z"/>
<path fill="#0E223B" opacity="1.000000" stroke="none" 
	d="
M98.460854,92.738716 
	C100.173393,92.837746 101.441071,92.921547 102.702499,93.004936 
	C102.702499,96.039047 102.702499,98.762428 102.702499,101.422012 
	C94.756020,102.899826 91.912483,101.088043 93.066483,95.356216 
	C93.587410,92.768791 94.725128,90.502266 98.460854,92.738716 
z"/>
<path fill="#FBF9F6" opacity="1.000000" stroke="none" 
	d="
M56.384136,19.944607 
	C58.357590,15.037938 61.149853,14.082647 68.869003,15.921868 
	C65.014153,17.493385 60.889454,18.738798 56.384136,19.944607 
z"/>
<path fill="#FBF9F6" opacity="1.000000" stroke="none" 
	d="
M73.351135,15.876362 
	C74.191422,15.382033 75.375290,14.930075 76.777695,14.734492 
	C75.895729,15.300157 74.795227,15.609444 73.351135,15.876362 
z"/>
<path fill="#0A1E38" opacity="1.000000" stroke="none" 
	d="
M91.402252,164.850510 
	C90.936134,164.591187 90.937080,164.409668 90.902855,163.958160 
	C91.512672,162.929245 92.157661,162.170349 93.348221,161.142883 
	C94.220322,160.151001 94.546860,159.427689 94.873398,158.704376 
	C96.537346,158.169693 98.177025,157.292694 99.870392,157.172577 
	C103.251717,156.932739 106.662498,157.108017 110.597275,157.498688 
	C112.121178,157.835205 113.108910,157.784912 114.096649,157.734619 
	C115.525703,158.795654 116.954758,159.856705 118.383812,160.917740 
	C118.231781,161.541733 118.079750,162.165741 117.927711,162.789734 
	C115.484276,163.510513 113.064545,164.736893 110.592751,164.852768 
	C104.364113,165.144806 98.112000,164.936234 91.402252,164.850510 
z"/>
<path fill="#1C2A41" opacity="1.000000" stroke="none" 
	d="
M113.891312,157.459671 
	C113.108910,157.784912 112.121178,157.835205 111.056503,157.574005 
	C111.881699,157.236588 112.783844,157.210663 113.891312,157.459671 
z"/>
<path fill="#1C2A41" opacity="1.000000" stroke="none" 
	d="
M94.625809,158.855545 
	C94.546860,159.427689 94.220322,160.151001 93.579193,160.946228 
	C93.635803,160.347672 94.007011,159.677185 94.625809,158.855545 
z"/>
</svg>