<svg version="1.1" id="Layer_1" xmlns="http://www.w3.org/2000/svg" xmlns:xlink="http://www.w3.org/1999/xlink" x="0px" y="0px"
	 width="100%" viewBox="0 0 512 512" enable-background="new 0 0 512 512" xml:space="preserve">
<path fill="#000000" opacity="1.000000" stroke="none" 
	d="
M285.468658,513.000000 
	C286.300079,510.394775 288.654968,508.710266 290.593292,506.674072 
	C296.161682,500.824493 296.272552,495.900818 290.509247,490.352722 
	C287.975739,487.913849 286.244202,484.396118 281.842285,484.228912 
	C277.688873,484.071198 274.504730,485.215454 271.708557,488.380798 
	C267.523132,493.118866 263.012085,497.570038 258.606445,502.111176 
	C258.299194,502.427856 257.718750,502.479492 256.736389,502.858459 
	C253.135178,494.897614 253.716309,486.948273 256.773529,479.270966 
	C263.013763,463.600525 277.335541,455.415344 294.232483,457.489227 
	C296.633942,457.783966 298.399475,457.253357 300.009583,455.483826 
	C307.181183,447.602112 314.342072,439.708344 321.656097,431.959869 
	C323.891846,429.591339 323.691559,427.781036 321.583649,425.589630 
	C311.538483,415.146606 301.529297,404.668732 291.550720,394.162018 
	C289.516602,392.020233 286.784760,391.834930 284.223969,391.448059 
	C281.271210,391.001953 279.400696,389.559540 278.079041,386.994476 
	C275.868011,382.703247 273.523865,378.480835 271.264526,374.214233 
	C268.230804,368.485291 274.107269,366.880676 276.300171,363.638977 
	C278.235168,360.778503 280.550018,362.172913 282.799927,363.591003 
	C285.474854,365.277008 288.191528,366.927032 291.018555,368.334625 
	C295.949371,370.789703 299.602509,374.014038 299.393799,380.093781 
	C299.344666,381.524658 300.236389,382.583313 301.170746,383.559418 
	C311.534821,394.386688 321.897827,405.215057 332.282532,416.022552 
	C332.832397,416.594849 333.573883,416.983063 334.622131,417.744690 
	C340.333466,412.230316 345.696472,406.595459 350.708405,400.618591 
	C351.987030,399.093811 351.116364,397.444458 350.889832,395.833679 
	C347.960999,375.006836 358.512390,358.418121 377.726440,353.547455 
	C381.191376,352.669159 384.677765,352.632172 388.139008,353.172333 
	C392.331757,353.826660 392.923553,355.458954 390.206451,358.672791 
	C386.121857,363.504211 381.927826,368.243225 377.774017,373.016052 
	C374.033356,377.314148 374.164642,383.076996 378.098938,387.271912 
	C379.352203,388.608215 380.582886,389.965729 381.824890,391.312592 
	C386.095306,395.943451 392.295471,396.243225 396.738678,391.716797 
	C400.700989,387.680237 404.308777,383.297913 408.157593,379.146576 
	C409.708862,377.473389 410.959473,375.397736 413.907074,374.375793 
	C417.503052,379.961914 418.006287,386.112183 416.721771,392.326935 
	C412.262238,413.903473 394.608368,424.581116 378.072418,422.255249 
	C374.754669,421.788574 372.428894,422.955505 370.195190,425.371277 
	C354.593323,442.244781 338.891754,459.026093 323.211914,475.827423 
	C320.897369,478.307526 319.089294,480.620880 320.265381,484.584900 
	C323.229645,494.575958 319.691559,503.574310 315.070862,512.644897 
	C305.312439,513.000000 295.624878,513.000000 285.468658,513.000000 
z"/>
<path fill="#000000" opacity="1.000000" stroke="none" 
	d="
M165.468658,513.000000 
	C158.976212,510.262909 152.944244,507.543671 146.929886,504.785980 
	C94.027237,480.528809 54.039288,442.721802 27.500530,390.840851 
	C12.758505,362.021423 4.250334,331.441437 1.814904,299.164642 
	C1.753363,298.349030 1.465361,297.550476 1.141487,296.372009 
	C1.000000,286.979095 1.000000,277.958221 1.000000,268.468658 
	C2.909386,262.685577 1.739764,256.808380 4.171777,250.310593 
	C9.085018,257.103088 17.013958,259.683136 16.491247,270.182159 
	C13.578924,328.678192 30.772202,381.025818 67.848404,426.316589 
	C104.269318,470.806885 150.886734,498.491821 207.972427,507.758575 
	C221.311310,509.923859 234.753006,510.632446 248.263336,509.933197 
	C250.701385,509.807037 253.399460,509.276184 254.888870,512.630249 
	C225.312439,513.000000 195.624878,513.000000 165.468658,513.000000 
z"/>
<path fill="#000000" opacity="1.000000" stroke="none" 
	d="
M377.468658,513.000000 
	C376.634216,511.051056 375.113220,509.924927 373.857208,508.618835 
	C365.791260,500.231506 357.719788,491.849457 349.641052,483.474426 
	C348.484131,482.275024 346.985992,481.135132 347.019135,479.381256 
	C347.081665,476.072662 346.096588,474.177399 342.421570,473.773895 
	C340.035278,473.511871 339.369293,471.532898 340.178375,469.196533 
	C340.944916,466.983093 341.834900,464.893066 343.489410,463.134033 
	C349.639648,456.595337 355.675537,449.948792 361.847748,443.431152 
	C366.312714,438.716309 371.421936,439.731476 373.794342,445.686249 
	C374.149994,446.578888 373.999451,448.086395 375.127563,448.150909 
	C381.205811,448.498688 383.455566,453.819183 386.960297,457.306793 
	C399.567719,469.852417 411.866913,482.707123 424.382477,495.346130 
	C429.062836,500.072693 430.905273,505.613861 430.102112,512.561340 
	C412.645782,513.000000 395.291534,513.000000 377.468658,513.000000 
z"/>
<path fill="#000000" opacity="1.000000" stroke="none" 
	d="
M1.000000,503.486572 
	C3.788209,505.580322 4.990243,509.145508 6.898211,512.667786 
	C5.061047,513.000000 3.122094,513.000000 1.000000,513.000000 
	C1.000000,509.992340 1.000000,506.982727 1.000000,503.486572 
z"/>
<path fill="#000000" opacity="1.000000" stroke="none" 
	d="
M236.645172,425.638519 
	C227.053757,435.164886 215.882217,439.658081 202.634537,439.475311 
	C185.804520,439.243164 168.966125,439.210083 152.136490,439.451263 
	C124.401451,439.848694 103.663994,427.010773 87.634285,405.511200 
	C75.150169,388.767120 69.862869,369.554382 69.829887,348.813782 
	C69.792267,325.147491 69.713997,301.479950 69.936501,277.815613 
	C69.979515,273.241150 68.634590,271.655853 64.037704,270.773010 
	C28.243198,263.898773 3.883572,234.100494 3.867037,197.661835 
	C3.861894,186.328629 3.868037,174.995407 3.854834,163.662216 
	C3.840840,151.649582 11.346339,143.167633 23.318993,141.681168 
	C25.136080,141.455582 26.946663,141.023315 28.765198,140.994080 
	C33.282825,140.921432 37.012730,140.788254 39.457851,135.416809 
	C41.574932,130.765991 47.123753,131.291229 51.594646,132.363434 
	C55.834465,133.380249 57.853931,136.778763 58.007557,140.934189 
	C58.235214,147.091995 58.191338,153.267548 58.030281,159.429459 
	C57.914680,163.852310 55.851662,167.142975 51.288116,168.177063 
	C44.878109,169.629547 40.273117,168.274246 38.332134,163.640793 
	C36.009628,158.096573 31.585075,160.371155 28.061329,160.520935 
	C24.087473,160.689819 25.210131,164.448944 25.274967,166.857407 
	C25.637653,180.329437 23.871439,193.897415 26.220139,207.265411 
	C30.529556,231.793121 50.538387,249.269745 75.430519,250.758148 
	C106.392769,252.609512 130.936798,233.869659 136.089447,203.316620 
	C138.301987,190.197205 136.531830,176.705719 136.741119,163.385239 
	C136.767868,161.682434 136.121948,160.276688 134.230484,160.359787 
	C131.608276,160.474991 128.343323,158.886230 126.809074,162.569504 
	C124.832199,167.315369 121.086792,168.615479 116.312775,168.402664 
	C110.222954,168.131195 107.161804,165.278625 107.029747,159.077225 
	C106.905594,153.247131 106.925903,147.409042 107.076393,141.579468 
	C107.211151,136.359802 109.889130,132.992355 114.266235,132.077332 
	C119.914078,130.896683 124.184288,132.529068 126.414276,137.408768 
	C127.594093,139.990433 129.079132,140.719299 131.718246,140.784378 
	C135.868561,140.886734 140.045135,141.198044 144.144150,141.843124 
	C152.800156,143.205353 157.957214,149.229935 158.166458,158.043976 
	C158.295959,163.499130 158.190475,168.959839 158.190475,175.688446 
	C166.896011,168.576340 174.679108,162.202240 182.479004,155.848740 
	C200.823196,140.906281 219.156448,125.950256 237.535950,111.051300 
	C243.052521,106.579391 247.423370,106.552620 252.840042,110.988106 
	C280.301361,133.474976 307.718140,156.016281 335.169647,178.515121 
	C336.652222,179.730194 337.865265,181.460403 340.701324,181.676971 
	C340.701324,175.273605 340.647644,169.006592 340.715698,162.740891 
	C340.791229,155.787125 343.517517,153.155762 350.530579,153.175171 
	C352.025116,153.179306 353.517822,153.418671 355.013489,153.517822 
	C366.318939,154.267395 367.141754,155.165283 367.148529,166.766998 
	C367.155029,177.933517 367.258209,189.101181 367.121094,200.265900 
	C367.078979,203.696960 368.023438,206.126755 370.799347,208.394531 
	C382.669739,218.092102 394.336578,228.038849 406.073914,237.899231 
	C410.925720,241.975204 412.370880,245.867325 410.777191,250.508636 
	C409.222198,255.037262 405.657166,257.097260 399.154755,257.126373 
	C389.988373,257.167389 380.818787,257.303680 371.656586,257.112091 
	C367.549927,257.026245 366.205139,258.480591 366.228394,262.613525 
	C366.379242,289.445770 366.225708,316.279755 366.396545,343.111755 
	C366.422913,347.250092 365.185669,349.859467 361.666412,352.095490 
	C355.358002,356.103668 350.651886,361.700623 347.552917,368.566681 
	C347.084412,369.604706 346.889130,370.839203 345.293732,371.343262 
	C343.241516,370.088196 343.952026,367.888763 344.042053,366.119049 
	C345.321136,340.975525 344.243225,315.818848 344.422394,290.670410 
	C344.518341,277.196625 345.060699,263.708984 344.206696,250.217972 
	C343.632446,241.146591 347.172974,237.786896 356.161957,237.765717 
	C360.604736,237.755249 365.047577,237.763901 370.035126,237.763901 
	C368.881866,234.837158 367.014618,233.667038 365.430328,232.352768 
	C326.826538,200.329025 288.184906,168.350967 249.584702,136.322983 
	C246.788666,134.003021 244.631775,132.679916 241.041321,135.657928 
	C214.501358,157.670715 187.791107,179.478470 161.077026,201.280426 
	C159.008591,202.968536 157.842453,204.811417 157.331116,207.444687 
	C150.913147,240.495651 131.111343,261.272461 98.856262,270.054199 
	C93.461800,271.522858 91.563034,273.060120 91.615967,279.112823 
	C91.844467,305.242798 91.033234,331.398926 92.215981,357.504547 
	C93.159355,378.326843 102.745041,395.037384 119.504295,407.522034 
	C120.522003,408.280182 121.533546,409.323730 123.210678,408.878326 
	C124.546349,406.641144 123.956795,404.095276 123.958900,401.680817 
	C123.995514,359.681396 124.048119,317.681641 123.882431,275.682831 
	C123.863190,270.806976 125.054344,267.479279 129.597900,265.220917 
	C133.171814,263.444519 136.002045,260.477875 138.921707,257.731537 
	C140.435562,256.307526 142.149231,255.095886 144.063049,253.554382 
	C145.769333,256.553284 145.256683,259.085449 145.258133,261.481445 
	C145.288177,311.147552 145.273651,360.813629 145.278656,410.479736 
	C145.279373,417.634583 145.304794,417.673035 152.451614,417.682526 
	C167.951401,417.703094 183.481308,417.076904 198.942520,417.847137 
	C214.011917,418.597900 228.563416,409.295044 229.599045,388.274628 
	C229.926712,381.623993 229.573868,374.942322 229.705826,368.278290 
	C229.759476,365.568665 228.715576,364.142273 226.252045,362.950623 
	C209.924835,355.053040 201.652069,340.133026 203.990280,323.196655 
	C206.191910,307.249634 219.348663,294.224823 236.212219,291.297791 
	C255.706329,287.914185 276.459198,304.960449 277.384369,325.059113 
	C278.191010,342.582855 270.763275,355.263977 255.000244,362.881042 
	C252.073654,364.295227 251.350281,366.178040 251.268585,369.133667 
	C251.002045,378.776367 252.289032,388.483337 250.477036,398.056671 
	C248.518723,408.403076 244.418045,417.764435 236.645172,425.638519 
M257.680908,337.991119 
	C258.087280,337.082825 258.562622,336.198578 258.889221,335.262451 
	C261.710541,327.175079 259.237457,318.141876 252.863968,313.154541 
	C246.158951,307.907776 236.674118,307.660156 229.576370,312.546509 
	C222.947647,317.109924 219.827835,326.088074 222.193146,334.220673 
	C224.344650,341.618164 229.486511,346.055328 236.839325,347.663788 
	C245.710388,349.604431 252.361145,345.923920 257.680908,337.991119 
z"/>
<path fill="#000000" opacity="1.000000" stroke="none" 
	d="
M474.583984,330.472870 
	C463.432129,380.819519 440.186401,423.858185 402.803589,458.996460 
	C392.037476,451.070251 391.991028,450.286499 399.660553,442.238007 
	C434.149384,406.044922 455.625732,363.238892 462.424469,313.744019 
	C471.743378,245.902161 454.011841,185.089050 410.496185,132.466644 
	C374.478271,88.911072 327.872559,62.731010 271.807617,54.289722 
	C221.964233,46.785164 174.225861,54.073868 129.159332,76.833519 
	C108.083412,87.477341 88.976372,101.116142 72.086189,117.730942 
	C63.898804,125.784828 59.757927,126.947754 47.703571,124.589523 
	C48.274971,120.866386 51.203644,118.668137 53.448959,116.282097 
	C93.043793,74.205559 141.034012,47.288567 198.449142,39.368568 
	C278.022400,28.392019 348.053436,49.399311 406.067474,105.959457 
	C437.492340,136.596802 458.370087,173.701401 470.584961,215.914719 
	C478.522400,243.345688 480.473663,271.215485 479.114319,299.466919 
	C478.618835,309.764221 477.097961,320.000641 474.583984,330.472870 
z"/>
<path fill="#000000" opacity="1.000000" stroke="none" 
	d="
M307.402161,435.549896 
	C305.564911,438.000244 303.453430,438.995148 300.732605,438.992188 
	C280.588715,438.970428 260.444733,439.004669 240.300781,438.990326 
	C239.019699,438.989441 237.578751,439.215546 236.553558,437.595642 
	C238.105576,434.505402 241.323868,432.777130 243.459930,430.101929 
	C244.601212,428.672546 246.255539,427.468384 246.893768,425.852631 
	C250.217834,417.437378 256.611633,416.060089 264.820068,416.566010 
	C275.103088,417.199799 285.464081,416.988129 295.772095,416.611969 
	C300.578583,416.436584 304.201019,417.630066 306.914307,421.556396 
	C307.195862,421.963837 307.574951,422.304199 307.910919,422.673737 
	C313.749084,429.094879 313.749146,429.094818 307.402161,435.549896 
z"/>
<path fill="#000000" opacity="1.000000" stroke="none" 
	d="
M235.098572,270.763611 
	C229.547287,271.011749 224.395126,271.230164 219.246933,271.159546 
	C214.566833,271.095428 211.866653,268.563568 211.306854,263.872131 
	C210.670731,258.540894 211.369492,253.227646 211.804291,247.940704 
	C212.107239,244.256912 214.976242,242.481430 218.400696,242.271301 
	C223.207031,241.976410 228.055893,241.853485 232.856827,242.145737 
	C237.231323,242.412033 239.910248,245.096558 240.118179,249.567886 
	C240.334381,254.216187 240.219101,258.881683 240.186188,263.539185 
	C240.162567,266.882996 238.405075,269.142090 235.098572,270.763611 
z"/>
<path fill="#000000" opacity="1.000000" stroke="none" 
	d="
M238.403595,210.783569 
	C241.525482,217.977081 240.425308,225.115707 239.574829,232.101044 
	C239.184677,235.305603 236.049286,236.842789 232.795944,236.951202 
	C228.149536,237.106079 223.486923,237.206711 218.846786,236.992752 
	C214.429459,236.789062 211.707230,234.393814 211.616623,229.762787 
	C211.519241,224.787292 211.572021,219.807297 211.649475,214.830643 
	C211.688507,212.322144 212.803833,209.682297 215.077850,209.214142 
	C222.798904,207.624634 230.672897,206.044250 238.403595,210.783569 
z"/>
<path fill="#000000" opacity="1.000000" stroke="none" 
	d="
M256.415344,242.102417 
	C260.698944,242.104904 264.547394,241.892197 268.354980,242.194519 
	C272.778992,242.545776 275.343964,245.041687 275.357330,249.701523 
	C275.370209,254.200104 275.453003,258.700775 275.347137,263.196777 
	C275.225647,268.357391 272.816711,270.938873 267.742432,271.159729 
	C263.251984,271.355164 258.742310,271.355133 254.249954,271.194794 
	C249.409653,271.022003 246.967499,268.542908 246.756851,263.669495 
	C246.591507,259.844360 246.674332,256.006500 246.714096,252.174973 
	C246.792419,244.629395 248.322571,242.987518 256.415344,242.102417 
z"/>
<path fill="#000000" opacity="1.000000" stroke="none" 
	d="
M251.190948,236.264191 
	C247.637909,234.433838 246.529419,231.747528 246.646423,228.267914 
	C246.780197,224.289368 246.594498,220.300720 246.698914,216.320419 
	C246.830276,211.312912 249.247772,208.500504 254.213989,208.151901 
	C258.837677,207.827316 263.516144,207.808777 268.140869,208.110107 
	C272.487091,208.393280 275.193542,210.897690 275.323944,215.476624 
	C275.456238,220.120331 275.490204,224.770782 275.408508,229.415497 
	C275.334290,233.636536 273.184784,236.611374 268.915985,236.837646 
	C263.153992,237.143021 257.327545,237.759583 251.190948,236.264191 
z"/>
</svg>