<svg version="1.1" id="Layer_1" xmlns="http://www.w3.org/2000/svg" xmlns:xlink="http://www.w3.org/1999/xlink" x="0px" y="0px"
	 width="100%" viewBox="0 0 560 560" enable-background="new 0 0 560 560" xml:space="preserve">
<path fill="#000000" opacity="1.000000" stroke="none" 
	d="
M312.468658,561.000000 
	C313.294159,557.978149 316.015381,556.175354 318.165649,553.905518 
	C323.650696,548.115356 323.612274,541.732544 317.780670,536.215759 
	C314.519928,533.131104 312.325226,528.645935 306.460480,529.220276 
	C302.886932,529.570190 300.199799,530.494629 297.781860,533.197876 
	C292.602448,538.988464 287.155487,544.539795 281.687653,550.327209 
	C278.332397,546.897339 278.379822,543.059143 278.195221,539.552246 
	C276.947662,515.852905 298.305908,496.600983 321.667847,500.314484 
	C324.239441,500.723297 326.132935,500.426056 327.917969,498.462006 
	C335.873627,489.708679 343.858337,480.980408 351.943237,472.346710 
	C354.288300,469.842468 354.053650,467.824463 351.811890,465.481995 
	C340.983643,454.167145 330.183380,442.825134 319.443695,431.426300 
	C317.167969,429.010895 314.215088,428.616943 311.282471,428.200073 
	C307.653961,427.684265 305.286865,425.887848 303.686676,422.567535 
	C301.592041,418.221283 299.210114,414.007843 296.830658,409.805878 
	C293.120453,403.253754 299.577393,401.173065 302.255676,397.530853 
	C304.656708,394.265656 307.187256,396.397888 309.627106,397.906036 
	C313.169159,400.095490 316.649628,402.447510 320.394897,404.228546 
	C324.606354,406.231293 326.899536,409.342163 327.087708,413.845398 
	C327.217468,416.950378 328.698029,419.061279 330.734894,421.174255 
	C341.256226,432.088989 351.748627,443.033356 362.103638,454.105286 
	C364.583466,456.756744 366.291870,457.213226 368.867950,454.215118 
	C372.772400,449.670959 376.992157,445.388733 381.211884,441.127899 
	C383.744629,438.570526 384.602661,436.113312 383.789246,432.262848 
	C378.689148,408.120697 398.196930,384.684174 421.990387,386.006378 
	C423.150970,386.070862 424.335815,386.136200 425.455566,386.416199 
	C428.642609,387.213135 429.801453,388.720215 427.226440,391.609039 
	C422.461029,396.955139 417.804688,402.398438 413.045654,407.750336 
	C408.960632,412.344269 408.856415,419.094513 413.230804,423.337891 
	C416.900452,426.897644 419.283020,432.336639 425.930206,431.806885 
	C429.296173,431.538635 432.055756,430.762268 434.310547,428.180328 
	C438.693024,423.162079 443.148071,418.206573 447.617371,413.265167 
	C448.913788,411.831818 449.850922,409.881958 452.719727,409.584625 
	C456.832397,416.459839 456.772980,423.879242 454.952637,431.428375 
	C450.773499,448.759796 437.390411,460.345612 419.755737,462.064758 
	C418.929382,462.145355 418.001801,462.358826 417.273529,462.093201 
	C409.907257,459.406006 405.677917,463.657837 401.189301,468.597321 
	C384.945648,486.472626 368.445679,504.115570 351.976501,521.784729 
	C350.142853,523.752014 349.170563,525.436035 349.969727,528.368713 
	C353.102112,539.863037 350.140869,550.390747 344.098633,560.658203 
	C333.645782,561.000000 323.291534,561.000000 312.468658,561.000000 
z"/>
<path fill="#000000" opacity="1.000000" stroke="none" 
	d="
M181.468658,561.000000 
	C173.411240,557.627014 165.744568,554.418030 158.245850,550.855591 
	C88.205078,517.580933 40.325558,464.317596 14.825562,391.103851 
	C7.512215,370.106293 3.399507,348.365082 1.836101,326.163513 
	C1.778732,325.348816 1.485978,324.550659 1.151459,323.372406 
	C1.000000,313.312439 1.000000,303.624878 1.000000,293.468658 
	C2.798881,288.734802 1.602583,284.070953 2.771404,279.712524 
	C3.225981,278.017456 2.822235,276.014465 4.722157,274.786163 
	C8.914292,278.781464 13.121702,282.721558 17.236032,286.756561 
	C18.413338,287.911133 18.098637,289.553375 17.996231,291.047485 
	C14.175824,346.786133 27.762037,398.069092 58.232281,444.727356 
	C86.809601,488.486969 125.375832,520.575378 173.772430,540.507690 
	C204.990509,553.364990 237.562164,559.132751 271.350739,557.846069 
	C274.030823,557.743958 277.191467,556.759094 278.903381,560.619873 
	C246.645767,561.000000 214.291550,561.000000 181.468658,561.000000 
z"/>
<path fill="#000000" opacity="1.000000" stroke="none" 
	d="
M413.468658,561.000000 
	C404.646942,550.612610 394.656006,541.772217 385.616760,532.031860 
	C382.601654,528.782898 378.762634,526.157471 379.547638,520.766479 
	C379.882996,518.463379 377.826233,518.371094 376.092773,518.264648 
	C371.711639,517.995605 370.674377,515.916931 372.437073,511.921051 
	C375.074341,505.942719 380.383209,502.193726 384.312378,497.301331 
	C387.427643,493.422272 391.134796,490.024689 394.419983,486.273956 
	C396.923096,483.416168 399.311584,480.935303 403.702942,482.126495 
	C407.958160,483.280792 408.721252,486.462372 408.776001,490.491547 
	C413.482788,489.531189 415.991333,492.438110 418.680939,495.217010 
	C432.906525,509.914673 446.933929,524.819031 461.576233,539.091431 
	C467.789673,545.147949 470.778442,551.848083 470.865784,560.620850 
	C451.979095,561.000000 432.958221,561.000000 413.468658,561.000000 
z"/>
<path fill="#000000" opacity="1.000000" stroke="none" 
	d="
M1.000000,550.482971 
	C3.771502,552.978882 5.468383,556.588928 7.017421,560.637817 
	C5.056478,561.000000 3.112956,561.000000 1.000000,561.000000 
	C1.000000,557.656372 1.000000,554.311157 1.000000,550.482971 
z"/>
<path fill="#000000" opacity="1.000000" stroke="none" 
	d="
M235.303574,141.286209 
	C243.606293,134.557480 251.577332,127.983261 259.694946,121.595222 
	C266.283264,116.410591 270.562653,116.532234 277.127167,121.919868 
	C307.009125,146.444641 336.860443,171.006729 366.728973,195.547867 
	C368.250732,196.798218 369.829742,197.978867 371.360229,199.174881 
	C373.295563,197.693024 372.605988,195.890594 372.630707,194.359421 
	C372.730255,188.194351 372.560150,182.023682 372.723999,175.861298 
	C372.865479,170.540848 375.549194,167.930038 380.818359,167.759018 
	C384.480865,167.640121 388.152435,167.679855 391.816986,167.769531 
	C398.232758,167.926529 401.187866,170.885544 401.228210,177.426361 
	C401.314636,191.425705 401.375153,205.426819 401.224701,219.424835 
	C401.187134,222.922440 402.288696,225.253937 405.011841,227.495651 
	C418.132111,238.296509 431.096161,249.287857 444.071869,260.263336 
	C449.192688,264.594788 450.656891,269.109772 448.873291,274.327881 
	C447.312592,278.893860 443.580322,281.002228 436.733887,281.043030 
	C426.567566,281.103607 416.398102,281.246521 406.235565,281.056824 
	C401.683655,280.971893 400.225708,282.624817 400.252014,287.197723 
	C400.421539,316.696594 400.256226,346.197357 400.421814,375.696289 
	C400.444794,379.789948 399.452850,382.394287 395.797241,384.614349 
	C388.350922,389.136475 383.008667,395.691406 379.628540,403.776855 
	C379.203003,404.794830 379.156586,406.167786 377.472076,406.130280 
	C376.081299,405.223206 376.608368,403.772308 376.608917,402.522644 
	C376.628174,359.523499 376.670563,316.524353 376.709137,273.525208 
	C376.718933,262.618683 379.353516,259.979523 390.285400,259.953186 
	C395.040131,259.941711 399.794952,259.951233 404.549713,259.951233 
	C404.691681,259.516663 404.833618,259.082092 404.975555,258.647522 
	C399.360199,253.809006 393.825775,248.872711 388.116455,244.147736 
	C349.734467,212.383255 311.274170,180.713211 272.973053,148.851654 
	C269.203613,145.715973 266.718048,145.584961 262.881104,148.755707 
	C233.603561,172.949997 204.162415,196.946457 174.725143,220.946793 
	C173.004745,222.349457 172.436111,223.972031 172.089127,226.035324 
	C167.410965,253.853073 152.327957,274.299896 127.843826,287.952606 
	C120.662651,291.956940 112.896675,294.571930 104.828522,296.032745 
	C101.323547,296.667389 100.102898,298.194733 100.116623,301.662903 
	C100.234634,331.495453 99.321663,361.366699 100.565392,391.149139 
	C101.549255,414.708801 113.017693,433.616333 132.625122,447.192780 
	C133.256485,447.629974 134.075836,447.795685 134.849808,448.104828 
	C136.342560,445.919739 135.749878,443.698822 135.751465,441.617950 
	C135.787140,394.784882 135.842987,347.951599 135.682358,301.119049 
	C135.665222,296.126404 136.726181,292.778046 141.441818,290.228729 
	C147.400650,287.007263 151.961121,281.714569 157.109955,277.528564 
	C159.060715,278.624420 158.436127,280.139618 158.439957,281.337921 
	C158.621170,338.164825 158.795212,394.991913 158.808899,451.819000 
	C158.809784,455.470245 159.569595,456.823303 163.416519,456.795135 
	C183.248596,456.649902 203.083694,456.879059 222.915131,456.695679 
	C236.907806,456.566315 249.481461,444.258514 250.563919,429.301514 
	C251.236038,420.014282 250.780930,410.647827 250.921295,401.318268 
	C250.962021,398.612213 249.317261,397.713409 247.188629,396.737640 
	C230.099426,388.904022 220.533539,371.714752 223.086304,353.654633 
	C225.605270,335.833679 240.044952,321.432770 258.140503,318.694611 
	C273.710419,316.338654 289.794861,324.485443 298.033295,338.900421 
	C305.929382,352.716370 304.818512,371.375488 295.547089,383.255096 
	C291.163605,388.871704 286.139801,393.672791 279.483765,396.376190 
	C276.007812,397.788025 274.894989,400.029449 274.894073,403.664368 
	C274.891296,414.802734 275.565826,425.969116 273.374725,437.034058 
	C268.158691,463.374725 247.175613,480.846741 220.320160,480.940125 
	C203.653839,480.998077 186.986038,480.804535 170.320724,480.942902 
	C131.256226,481.267181 104.400856,462.115601 86.893768,428.440247 
	C79.715683,414.632996 76.574348,399.668549 76.600800,384.057373 
	C76.646538,357.067291 76.513840,330.076324 76.712067,303.087616 
	C76.744072,298.731049 75.454391,296.967651 71.127823,296.182556 
	C33.533772,289.360443 6.635281,259.651245 4.499744,221.778931 
	C3.846561,210.195145 3.435246,198.485504 4.400078,186.832001 
	C4.563724,184.855438 4.418622,182.837631 4.255135,180.852158 
	C3.108172,166.922760 12.009018,156.210831 25.989410,154.752274 
	C28.307306,154.510452 30.624495,154.101364 32.944954,154.079300 
	C37.259621,154.038254 40.715057,153.645706 42.598476,148.501770 
	C44.069225,144.484909 50.684765,143.264832 56.581535,144.909683 
	C61.038483,146.152893 63.008232,149.610367 63.152252,153.927643 
	C63.374401,160.587128 63.299160,167.259750 63.217583,173.925171 
	C63.152874,179.212463 60.384682,182.887817 55.914082,183.974899 
	C49.657364,185.496307 44.562729,183.732208 41.897377,179.121399 
	C39.926090,175.711258 31.601976,173.677643 28.589743,175.861847 
	C27.514996,176.641174 27.310175,177.778732 27.342976,178.965591 
	C27.775129,194.601837 25.984056,210.316803 28.276592,225.872360 
	C32.019867,251.271606 52.552361,270.320709 78.279083,273.891571 
	C107.956703,278.010834 136.008102,261.788757 146.353989,233.320953 
	C148.483871,227.460388 149.521362,221.379257 149.624634,215.209564 
	C149.819870,203.546158 149.715164,191.877274 149.675888,180.210861 
	C149.668961,178.154434 150.253769,175.276581 146.968567,175.387222 
	C143.970978,175.488174 140.312057,173.494934 138.237534,177.844147 
	C135.549637,183.479355 130.886597,185.428162 124.563370,184.034363 
	C119.781021,182.980240 117.147331,179.191956 117.099289,173.118057 
	C117.050529,166.952103 117.026711,160.784546 117.111984,154.619370 
	C117.177559,149.878601 118.834671,145.575562 123.942543,144.949173 
	C131.398636,144.034805 135.524460,143.793884 138.110321,150.651962 
	C139.112198,153.309113 140.610855,153.791504 142.950272,153.808350 
	C148.454895,153.847961 153.959457,154.190765 159.303101,155.536209 
	C167.043030,157.485016 171.959122,162.385895 172.523972,170.498108 
	C172.983307,177.094986 172.617294,183.749313 172.617294,190.378174 
	C173.121368,190.628128 173.625458,190.878082 174.129532,191.128036 
	C194.431442,174.592407 214.733337,158.056778 235.303574,141.286209 
M283.225433,366.540710 
	C287.032227,354.655823 281.704193,343.139343 270.447906,338.922180 
	C260.546265,335.212494 248.572052,340.191132 244.042542,349.900970 
	C238.936218,360.847290 242.952133,372.858032 253.598831,378.481903 
	C264.542664,384.262756 276.616882,379.636169 283.225433,366.540710 
z"/>
<path fill="#000000" opacity="1.000000" stroke="none" 
	d="
M502.616211,361.710968 
	C508.386017,335.583191 510.466217,309.547424 507.518494,283.402679 
	C500.885651,224.572800 477.747864,173.191193 436.193054,130.626968 
	C402.019196,95.622978 361.089294,72.440048 313.175964,62.021584 
	C288.635132,56.685329 263.839081,55.230438 238.725784,56.995052 
	C204.695404,59.386234 172.478226,68.000488 142.089340,83.365158 
	C117.521217,95.786850 95.447342,111.787857 75.971275,131.243668 
	C72.415565,134.795685 68.968163,136.955917 63.812939,136.469498 
	C59.945980,136.104630 55.985279,137.717575 51.692642,136.414413 
	C52.673595,132.672653 55.326931,130.506271 57.480206,128.194534 
	C100.255753,82.270905 152.261780,53.035496 214.455154,43.328686 
	C272.372711,34.289223 328.097717,42.005486 380.408417,69.193237 
	C422.717377,91.182724 456.493927,122.769226 482.042236,163.046509 
	C503.222931,196.438187 516.718872,232.839249 522.048462,271.927124 
	C529.549377,326.939209 519.968750,379.306152 495.093262,428.900818 
	C481.973755,455.057434 464.716461,478.172791 444.037445,498.836670 
	C440.906372,501.965454 439.146515,502.024139 436.132507,498.762512 
	C429.289673,491.357361 429.156342,491.550446 436.152313,484.397552 
	C469.359741,450.445251 490.935028,410.119080 502.013702,364.051666 
	C502.169312,363.404541 502.379944,362.770660 502.616211,361.710968 
z"/>
<path fill="#000000" opacity="1.000000" stroke="none" 
	d="
M275.005646,479.920654 
	C269.287537,479.686310 263.983398,480.554718 258.410889,479.138580 
	C260.217072,475.561646 263.231903,473.880249 265.416931,471.473511 
	C268.799927,467.747192 271.794617,463.771149 274.213196,459.392578 
	C275.667450,456.759766 277.534271,455.685486 280.604523,455.709717 
	C295.924225,455.830566 311.248657,455.917755 326.564301,455.633240 
	C331.056824,455.549805 333.028412,458.496307 335.519501,461.040314 
	C343.748047,469.443695 343.547791,471.423523 334.125427,478.535675 
	C332.059235,480.095245 329.720184,479.986603 327.430939,479.866608 
	C310.119232,478.959320 292.812683,480.270050 275.005646,479.920654 
z"/>
<path fill="#000000" opacity="1.000000" stroke="none" 
	d="
M260.497498,267.712830 
	C263.693970,275.753723 262.507019,283.705627 261.635651,291.515564 
	C261.284271,294.664978 258.137726,296.210083 254.817245,296.248505 
	C249.504242,296.309937 244.186722,296.408997 238.877686,296.259247 
	C234.151581,296.125946 231.431442,293.367554 231.191605,288.762848 
	C230.907028,283.299347 231.011032,277.806366 231.168137,272.332520 
	C231.268860,268.823303 233.175201,266.032959 236.609177,265.440247 
	C243.326279,264.280945 250.153824,264.597046 256.915100,265.338593 
	C258.079498,265.466309 259.124756,266.680298 260.497498,267.712830 
z"/>
<path fill="#000000" opacity="1.000000" stroke="none" 
	d="
M299.883972,268.464813 
	C302.217621,276.004272 301.512268,283.334442 300.718903,290.543030 
	C300.330872,294.068573 297.349030,296.213837 293.531342,296.276550 
	C288.210022,296.364044 282.886475,296.347900 277.564056,296.326569 
	C272.943848,296.308044 270.251984,293.651154 269.950195,289.356018 
	C269.543396,283.567017 269.605499,277.711151 269.963989,271.914764 
	C270.187866,268.295746 272.533844,265.448151 276.275269,265.207642 
	C282.399323,264.813934 288.567261,264.963593 294.711670,265.103943 
	C296.746246,265.150360 298.477753,266.340790 299.883972,268.464813 
z"/>
<path fill="#000000" opacity="1.000000" stroke="none" 
	d="
M277.574615,259.035767 
	C271.811249,258.025665 269.628601,254.641068 269.698456,249.436722 
	C269.758698,244.948669 269.597656,240.455276 269.749023,235.971481 
	C269.916870,230.999863 272.950897,227.927078 277.910309,227.767471 
	C282.892639,227.607117 287.887115,227.632141 292.871063,227.767487 
	C297.910370,227.904358 300.883148,230.727081 301.134644,235.842773 
	C301.379242,240.818665 301.396667,245.823090 301.174683,250.799850 
	C300.937439,256.119171 297.976196,258.856110 292.477264,259.033417 
	C287.661041,259.188629 282.835938,259.066528 277.574615,259.035767 
z"/>
<path fill="#000000" opacity="1.000000" stroke="none" 
	d="
M236.811630,228.028351 
	C242.874771,227.841629 248.524170,227.660522 254.168381,227.763733 
	C259.468445,227.860641 262.146027,230.542633 262.280792,235.758163 
	C262.409546,240.740723 262.392548,245.730438 262.299225,250.714371 
	C262.205597,255.715851 259.712616,258.669739 254.851135,258.943604 
	C249.551376,259.242126 244.207047,259.251404 238.909119,258.935028 
	C233.933273,258.637878 231.265915,255.505035 231.111816,250.350281 
	C230.977798,245.867142 231.086487,241.377213 231.046387,236.890656 
	C231.010269,232.848633 232.550293,229.805878 236.811630,228.028351 
z"/>
</svg>